<svg width="512" height="512" viewBox="0 0 512 512" fill="none" xmlns="http://www.w3.org/2000/svg">
  <rect width="512" height="512" rx="100" fill="#F8FAFC" fill-opacity="1"/>

  <defs>
    <linearGradient id="logo-gradient" x1="0%" y1="0%" x2="100%" y2="100%">
      <stop offset="0%" stop-color="#3B82F6" />
      <stop offset="100%" stop-color="#1E40AF" />
    </linearGradient>
    <filter id="glow" x="-20%" y="-20%" width="140%" height="140%">
      <feGaussianBlur stdDeviation="5" result="blur" />
      <feComposite in="SourceGraphic" in2="blur" operator="over" />
    </filter>
  </defs>

  <!-- Left Bracket Group -->
  <path d="M180 140C140 140 120 160 120 200V230C120 250 100 256 80 256C100 256 120 262 120 282V312C120 352 140 372 180 372" 
        stroke="url(#logo-gradient)" 
        stroke-width="32" 
        stroke-linecap="round" 
        stroke-linejoin="round"/>

  <!-- Right Bracket Group -->
  <path d="M332 140C372 140 392 160 392 200V230C392 250 412 256 432 256C412 256 392 262 392 282V312C392 352 372 372 332 372" 
        stroke="url(#logo-gradient)" 
        stroke-width="32" 
        stroke-linecap="round" 
        stroke-linejoin="round"/>

  <!-- Central Interface Node -->
  <circle cx="256" cy="256" r="48" fill="url(#logo-gradient)" filter="url(#glow)"/>
  
  <!-- Connecting Lines -->
  <line x1="160" y1="256" x2="208" y2="256" stroke="url(#logo-gradient)" stroke-width="12" stroke-linecap="round"/>
  <line x1="304" y1="256" x2="352" y2="256" stroke="url(#logo-gradient)" stroke-width="12" stroke-linecap="round"/>
</svg>
